<?xml version="1.0" encoding="UTF-8"?>
<svg width="99px" height="99px" viewBox="0 0 99 99" version="1.1" xmlns="http://www.w3.org/2000/svg" xmlns:xlink="http://www.w3.org/1999/xlink">
    <!-- Generator: Sketch 51.2 (57519) - http://www.bohemiancoding.com/sketch -->
    <title>step 1</title>
    <desc>Created with Sketch.</desc>
    <defs>
        <rect id="path-1" x="0" y="0" width="99" height="99"></rect>
    </defs>
    <g id="Culligan-Home-Softener-Page" stroke="none" stroke-width="1" fill="none" fill-rule="evenodd">
        <g id="Culligan_HOME_Waterkit" transform="translate(-135.000000, -3552.000000)">
            <g id="Group" transform="translate(135.000000, 3441.000000)">
                <g id="1" transform="translate(0.000000, 107.000000)">
                    <g id="step-1" transform="translate(0.000000, 4.000000)">
                        <mask id="mask-2" fill="white">
                            <use xlink:href="#path-1"></use>
                        </mask>
                        <use id="Mask" fill="#545454" xlink:href="#path-1"></use>
                        <g id="Group-3" mask="url(#mask-2)" fill="#F7F7F9">
                            <g transform="translate(23.000000, 6.000000)" id="Fill-1">
                                <path d="M13.3515069,84.1899599 C9.57389646,84.1899599 6.50065661,81.1291649 6.50065661,77.3668518 C6.50065661,75.4393295 7.55422504,72.6806966 9.54551584,69.3921231 C10.8882015,67.1878946 12.3528741,65.2258254 13.3481875,63.9646133 C14.8180051,65.8410589 16.0979546,67.6646096 17.1581618,69.3934455 C19.1497846,72.6542492 20.2023572,75.4113944 20.2023572,77.3668518 C20.2023572,81.1291649 17.1291173,84.1899599 13.3515069,84.1899599 Z M14.9896166,61.5007039 C14.5931177,60.999525 13.9969586,60.712405 13.3515069,60.712405 L13.028864,60.712405 L11.9225176,61.2441638 L11.7241851,61.4873149 C10.7459664,62.6862103 8.84894579,65.1182174 7.13133715,67.9376794 C4.80844116,71.7738801 3.67919107,74.8581471 3.67919107,77.3668518 C3.67919107,82.6784888 8.01810717,87 13.3515069,87 C18.6847406,87 23.0238227,82.6784888 23.0238227,77.3668518 C23.0238227,74.8609572 21.8613789,71.6869342 19.5673615,67.9309023 C18.3111454,65.882383 16.7711231,63.7189827 14.9896166,61.5007039 Z M50.0788558,31.8856908 L49.7331433,32.7918461 C48.7823094,35.2851782 46.35087,36.9602927 43.6829254,36.9602927 L41.5419309,36.9602927 C38.8741523,36.9602927 36.4428788,35.2851782 35.491713,32.7918461 L35.1461664,31.8856908 L25.7583207,31.8856908 C22.2716532,31.8856908 19.4349185,34.7109383 19.4349185,38.1834867 L19.4349185,47.274793 L24.3973785,47.274793 L24.3973785,53.2419959 L2.82146554,53.2419959 L2.82146554,47.274793 L7.90010352,47.274793 L7.90010352,33.3733591 C7.90010352,30.2224777 9.20129704,26.0153517 10.801068,23.9941063 C12.3757777,22.0017879 16.2116431,20.3810559 19.3519343,20.3810559 L35.0196984,20.3810559 L35.290891,19.3239849 C35.9202438,16.8711504 37.9573419,15.0140445 40.480562,14.5930344 L41.6582749,14.3964969 L41.6582749,6.89286318 L31.9157544,6.89286318 C31.3941152,6.89286318 30.9698995,6.47020008 30.9698995,5.95067325 C30.9698995,5.43114642 31.3941152,5.00848332 31.9157544,5.00848332 L41.6582749,5.00848332 L41.6582749,3.5538743 C41.6582749,2.84590948 42.4462936,2.81004015 42.6041297,2.81004015 C42.7621318,2.81004015 43.5503165,2.84590948 43.5503165,3.5538743 L43.5503165,5.00848332 L53.2925051,5.00848332 C53.8141443,5.00848332 54.2385259,5.43114642 54.2385259,5.95067325 C54.2385259,6.47020008 53.8141443,6.89286318 53.2925051,6.89286318 L43.5503165,6.89286318 L43.5503165,14.3964969 L44.7278634,14.5930344 C47.2368102,15.0117304 49.2745722,16.871481 49.919526,19.3310926 L50.1947019,20.3810559 L76.8125738,20.3810559 L77.1058402,31.8856908 L50.0788558,31.8856908 Z M79.5633367,17.5710157 L52.305822,17.5710157 C51.2681865,14.9421405 49.075078,12.921887 46.371782,12.097884 L46.371782,9.70290333 L53.2925051,9.70290333 C55.3699336,9.70290333 57.0599914,8.01968928 57.0599914,5.95067325 C57.0599914,3.88165722 55.3699336,2.19844317 53.2925051,2.19844317 L46.1082239,2.19844317 C45.5658387,0.883840274 44.2377583,0 42.6041297,0 C40.9706671,0 39.6425867,0.883840274 39.1003674,2.19844317 L31.9157544,2.19844317 C29.8384918,2.19844317 28.148434,3.88165722 28.148434,5.95067325 C28.148434,8.01968928 29.8384918,9.70290333 31.9157544,9.70290333 L38.8368093,9.70290333 L38.8368093,12.0972228 C36.12007,12.9217217 33.9256336,14.9424711 32.8981223,17.5710157 L19.3519343,17.5710157 C15.3243752,17.5710157 10.6951801,19.5851533 8.58472384,22.2551874 C6.58596445,24.7804217 5.07863798,29.5601347 5.07863798,33.3733591 L5.07863798,44.4647529 L0,44.4647529 L0,56.0520361 L27.2188441,56.0520361 L27.2188441,44.4647529 L22.2563841,44.4647529 L22.2563841,38.1834867 C22.2563841,36.2604275 23.8274425,34.695731 25.7583207,34.695731 L33.2574442,34.695731 C34.8286686,37.7669396 38.0433136,39.7703329 41.5419309,39.7703329 L43.6829254,39.7703329 C47.1817086,39.7703329 50.3963537,37.7669396 51.967578,34.695731 L80,34.695731 L79.5633367,17.5710157 Z"></path>
                            </g>
                        </g>
                    </g>
                </g>
            </g>
        </g>
    </g>
</svg>