<?xml version="1.0" encoding="UTF-8"?>
<svg width="99px" height="99px" viewBox="0 0 99 99" version="1.1" xmlns="http://www.w3.org/2000/svg" xmlns:xlink="http://www.w3.org/1999/xlink">
    <!-- Generator: Sketch 51.2 (57519) - http://www.bohemiancoding.com/sketch -->
    <title>Step 2</title>
    <desc>Created with Sketch.</desc>
    <defs>
        <rect id="path-1" x="0" y="0" width="99" height="99"></rect>
    </defs>
    <g id="Culligan-Home-Softener-Page" stroke="none" stroke-width="1" fill="none" fill-rule="evenodd">
        <g id="Culligan_HOME_Waterkit" transform="translate(-135.000000, -3673.000000)">
            <g id="Group" transform="translate(135.000000, 3441.000000)">
                <g id="2" transform="translate(0.000000, 224.000000)">
                    <g id="Step-2" transform="translate(0.000000, 8.000000)">
                        <mask id="mask-2" fill="white">
                            <use xlink:href="#path-1"></use>
                        </mask>
                        <use id="Mask" fill="#545454" xlink:href="#path-1"></use>
                        <path d="M81.3642318,77.8835151 C81.3642318,79.2561002 80.4653913,80.3726625 79.3604041,80.3726625 L57.5204651,80.3726625 C56.4144394,80.3726625 55.5145603,79.2561002 55.5145603,77.8835151 L55.5145603,33.0892139 C57.5883151,33.678549 59.5632373,33.9678684 61.5102925,33.9678684 C65.8217155,33.9676959 69.0409598,32.5447345 71.8820091,31.2889468 C75.6824794,29.6092727 78.0375005,28.5708628 81.3642318,31.4288622 L81.3642318,77.8835151 Z M83.0364249,18.0794551 C82.4564105,17.3260516 81.7462347,16.874734 81.175394,16.5117477 C80.647998,16.176365 80.1924331,15.8867006 79.9340143,15.592033 C79.6948081,15.3196208 79.565166,15.0596301 79.565166,14.466672 L79.565166,14.035367 L76.9293978,14.035367 L76.9293978,14.466672 C76.9293978,15.5580462 77.2911496,16.5714404 77.9481877,17.3201858 C78.4712564,17.9165944 79.0658101,18.2907946 79.5902636,18.6208292 L79.7560809,18.7257225 C80.305632,19.0750796 80.6962893,19.3562904 80.944669,19.6789066 C81.1477,19.9425202 81.3642318,20.2967078 81.3642318,21.1675989 L81.3642318,28.2356525 C77.538837,25.9581897 74.2640318,27.4053042 70.8282557,28.9238428 C66.9227216,30.6502704 62.5138507,32.5970086 55.5145603,30.3861392 L55.5145603,21.1675989 C55.5145603,20.313615 55.7272842,19.909741 55.9351616,19.627495 C56.1835414,19.290387 56.5620826,19.0045181 57.0913825,18.6530908 L57.2765855,18.5311177 C57.7785377,18.2019457 58.3474745,17.8289532 58.8490805,17.2465189 C59.4901946,16.5024316 59.8431189,15.5024941 59.8431189,14.431305 L59.8431189,14 L57.2073508,14 L57.2073508,14.431305 C57.2073508,15.0101163 57.0813435,15.2659664 56.8490608,15.5356183 C56.6024118,15.8221773 56.1620786,16.1144296 55.6521645,16.4529177 L55.6296631,16.4677546 C55.1026134,16.8179743 54.3806677,17.2972404 53.8103461,18.0713466 C53.200907,18.898417 52.8787921,19.9690886 52.8787921,21.1675989 L52.8787921,77.8835151 C52.8787921,80.7047674 54.9610282,83 57.5204651,83 L79.3604041,83 C81.9186293,83 84,80.7047674 84,77.8835151 L84,21.1675989 C84,19.9659832 83.6668076,18.8982445 83.0364249,18.0794551 Z M35.9278672,71.2874817 L18.8993994,71.2874817 C16.4647583,71.2874817 14,71.7869328 14,72.7418421 L14,79.1926121 C14,80.1473488 16.4647583,80.6469725 18.8993994,80.6469725 L35.9278672,80.6469725 C38.3625084,80.6469725 40.8272666,80.1473488 40.8272666,79.1926121 L40.8272666,72.7418421 C40.8272666,71.7869328 38.3625084,71.2874817 35.9278672,71.2874817 Z" id="Fill-1" fill="#F0EFF3" mask="url(#mask-2)"></path>
                    </g>
                </g>
            </g>
        </g>
    </g>
</svg>