<?xml version="1.0" encoding="UTF-8"?>
<svg width="99px" height="99px" viewBox="0 0 99 99" version="1.1" xmlns="http://www.w3.org/2000/svg" xmlns:xlink="http://www.w3.org/1999/xlink">
    <!-- Generator: Sketch 51.2 (57519) - http://www.bohemiancoding.com/sketch -->
    <title>step 4</title>
    <desc>Created with Sketch.</desc>
    <defs>
        <rect id="path-1" x="0" y="0" width="99" height="99"></rect>
    </defs>
    <g id="Culligan-Home-Softener-Page" stroke="none" stroke-width="1" fill="none" fill-rule="evenodd">
        <g id="Culligan_HOME_Waterkit" transform="translate(-726.000000, -3552.000000)">
            <g id="Group" transform="translate(135.000000, 3441.000000)">
                <g id="1-copy" transform="translate(591.000000, 103.000000)">
                    <g id="step-4" transform="translate(0.000000, 8.000000)">
                        <mask id="mask-2" fill="white">
                            <use xlink:href="#path-1"></use>
                        </mask>
                        <use id="Mask" fill="#545454" xlink:href="#path-1"></use>
                        <path d="M57.6520521,29.5562292 L32.6262188,29.5562292 C31.80575,29.5562292 31.1395417,30.2218229 31.1395417,31.0429062 C31.1395417,31.863375 31.8051354,32.5295833 32.6262188,32.5295833 L57.6520521,32.5295833 C58.4731354,32.5295833 59.1387292,31.8639896 59.1387292,31.0429062 C59.1387292,30.2224375 58.4725208,29.5562292 57.6520521,29.5562292 Z M55.560625,45.4143229 L32.6262188,45.4143229 C31.80575,45.4143229 31.1395417,46.0805312 31.1395417,46.901 C31.1395417,47.7220833 31.8051354,48.3876771 32.6262188,48.3876771 L52.5866563,48.3876771 L55.560625,45.4143229 Z M80.1912813,32.2591667 C79.4126042,31.479875 78.35675,31.0422917 77.2560313,31.0422917 C76.1553125,31.0422917 75.0994583,31.479875 74.3213958,32.2579375 L52.3266875,54.2532604 C51.7268542,54.8530937 51.2868125,55.5918229 51.0434375,56.4049167 L49.2906458,62.2803333 C49.2156667,62.5292396 49.2838854,62.7984271 49.4676458,62.9821875 C49.6022396,63.1167812 49.7823125,63.1893021 49.9666875,63.1893021 C50.0330625,63.1893021 50.1018958,63.1794687 50.1688854,63.1591875 L56.0436875,61.4063958 C56.8567812,61.1636354 57.5955104,60.7229792 58.1953437,60.1231458 L80.1906667,38.1290521 C80.9687292,37.350375 81.4063125,36.2945208 81.4063125,35.1944167 C81.4063125,34.0936979 80.9693438,33.0378437 80.1912813,32.2591667 Z M59.1387292,38.9716458 C59.1387292,38.1511771 58.4731354,37.4849687 57.6520521,37.4849687 L32.6262188,37.4849687 C31.80575,37.4849687 31.1395417,38.1511771 31.1395417,38.9716458 C31.1395417,39.7927292 31.8051354,40.4583229 32.6262188,40.4583229 L57.6520521,40.4583229 C58.4725208,40.4583229 59.1387292,39.7927292 59.1387292,38.9716458 Z M47.2446979,55.2697812 C47.4456667,54.5961979 47.7332917,53.9508854 48.0836042,53.3424479 L32.6268333,53.3424479 C31.8063646,53.3424479 31.1401562,54.0080417 31.1401562,54.829125 C31.1401562,55.6495937 31.80575,56.3158021 32.6268333,56.3158021 L46.9331042,56.3158021 L47.2446979,55.2697812 Z M63.3873437,76.1084583 L26.8909271,76.1084583 L26.8909271,24.8903125 L63.3873437,24.8903125 L63.3873437,37.586375 L67.2782708,33.6954479 L67.2782708,22.9451562 C67.2782708,21.8708646 66.4074062,21 65.3331146,21 L24.9457708,21 C23.8714792,21 23,21.8714792 23,22.9451562 L23,78.0542292 C23,79.1285208 23.8714792,80 24.9457708,80 L65.3331146,80 C66.4074062,80 67.2782708,79.1291354 67.2782708,78.0548437 L67.2782708,56.6464479 L63.3873437,60.537375 L63.3873437,76.1084583 Z M32.6262187,61.2718021 C31.8051354,61.2718021 31.1395417,61.9373958 31.1395417,62.7584792 C31.1395417,63.5789479 31.80575,64.2451562 32.6262187,64.2451562 L45.6848854,64.2451562 C45.3001562,63.310375 45.1999792,62.2772604 45.4722396,61.2718021 L32.6262187,61.2718021 Z" id="Fill-1" fill="#F0EFF3" mask="url(#mask-2)"></path>
                    </g>
                </g>
            </g>
        </g>
    </g>
</svg>