<?xml version="1.0" encoding="UTF-8"?>
<svg width="99px" height="99px" viewBox="0 0 99 99" version="1.1" xmlns="http://www.w3.org/2000/svg" xmlns:xlink="http://www.w3.org/1999/xlink">
    <!-- Generator: Sketch 51.2 (57519) - http://www.bohemiancoding.com/sketch -->
    <title>step 3</title>
    <desc>Created with Sketch.</desc>
    <defs>
        <rect id="path-1" x="0" y="0" width="99" height="99"></rect>
    </defs>
    <g id="Culligan-Home-Softener-Page" stroke="none" stroke-width="1" fill="none" fill-rule="evenodd">
        <g id="Culligan_HOME_Waterkit" transform="translate(-135.000000, -3792.000000)">
            <g id="Group" transform="translate(135.000000, 3441.000000)">
                <g id="3" transform="translate(0.000000, 346.000000)">
                    <g id="step-3" transform="translate(0.000000, 5.000000)">
                        <mask id="mask-2" fill="white">
                            <use xlink:href="#path-1"></use>
                        </mask>
                        <use id="Mask" fill="#545454" xlink:href="#path-1"></use>
                        <path d="M83.0601693,19.397294 C81.441115,17.2133344 78.2751776,15.4641475 74.1457103,14.4720732 C70.2366209,13.5330989 65.5047292,13.2728337 60.3356967,13.6975098 L59.9663643,11 L53.7435566,15.8261256 L61.034474,18.8020993 L60.6908192,16.2921849 C71.6233311,15.4156594 78.691253,17.899273 80.9573557,20.9561433 C81.683057,21.9351296 81.8443516,22.895294 81.436503,23.8100865 C81.0684171,24.6356309 79.2465603,27.3876119 71.2559931,28.1416083 C70.5362749,28.2095416 70.0080162,28.8478646 70.0759495,29.5675827 C70.1398939,30.2454192 70.7099098,30.7534849 71.3774004,30.7534849 C71.4185343,30.7534849 71.4600421,30.7516152 71.5017992,30.7476264 C74.7573586,30.4404935 77.4842853,29.7671444 79.6067934,28.746401 C81.6844281,27.7472217 83.1438082,26.4088749 83.8272538,24.8760771 C84.6251264,23.0865042 84.3526456,21.1407471 83.0601693,19.397294 Z M60.6265007,39.6683178 C57.2251031,37.5885641 54.3199295,38.8760545 51.2711613,40.2279879 C47.8096833,41.7630294 43.9009678,43.4957628 37.6811517,41.5040106 L37.6811517,33.3415536 C37.6811517,32.5673642 37.8660048,32.2088762 38.0658157,31.9367694 C38.2909302,31.6301351 38.6300977,31.3728614 39.1041345,31.057003 L39.1787987,31.007767 C39.9255656,31.1522342 40.7963573,31.2220371 41.642344,31.2220371 L56.665433,31.2220371 C57.4731528,31.2220371 58.3040571,31.1585912 59.0275148,31.0272121 C59.0280134,31.0275861 59.0286366,31.02796 59.0291352,31.028334 L59.1755967,31.1209475 C59.6668349,31.4343129 60.0165975,31.6875978 60.2419613,31.9811441 C60.4417722,32.2414094 60.6265007,32.5864354 60.6265007,33.3415536 L60.6265007,39.6683178 Z M60.6265007,83.5415863 C60.6265007,84.7950477 59.8020781,85.8149186 58.788689,85.8149186 L39.5209578,85.8149186 C38.5064468,85.8149186 37.6811517,84.7950477 37.6811517,83.5415863 L37.6811517,43.8493895 C39.6611869,44.4200285 41.4358021,44.6498796 43.0452585,44.6498796 C46.8343118,44.6498796 49.7064536,43.3762252 52.1807186,42.2789479 C55.563793,40.7788079 57.6513996,39.8539189 60.6265007,42.4525827 L60.6265007,83.5415863 Z M61.1430425,29.8238593 C61.144289,29.8079043 61.1465327,29.7921986 61.1465327,29.7758697 L61.1465327,24.0661137 C61.1465327,23.0724189 58.8237151,22.6199463 56.665433,22.6199463 L41.642344,22.6199463 C39.4840619,22.6199463 37.1611197,23.0724189 37.1611197,24.0661137 L37.1611197,29.7639035 C36.8676981,29.9997378 36.5670468,30.2845587 36.304164,30.6425481 C35.7755313,31.3625156 35.4960703,32.295756 35.4960703,33.3415536 L35.4960703,83.5415863 C35.4960703,86.000021 37.3015982,88 39.5209578,88 L58.788689,88 C61.0069268,88 62.8117068,86.000021 62.8117068,83.5415863 L62.8117068,33.3415536 C62.8117068,32.293637 62.5227725,31.3632634 61.9761905,30.6508995 C61.7182936,30.3149728 61.4299825,30.0478519 61.1430425,29.8238593 Z M27.0448036,25.9324699 C22.6993211,25.0776331 21.5599127,23.8164435 21.621115,23.1359895 C21.719587,22.0418283 23.8511943,20.1492961 28.2988883,18.579727 C33.0468595,16.9043318 39.0648703,16.0890085 44.8106497,16.3436646 C45.5334841,16.3759484 46.1441352,15.8161537 46.1760451,15.0940672 C46.2080797,14.3719807 45.6485343,13.7605817 44.9264478,13.7285472 C38.7688311,13.4559417 32.5544995,14.3021778 27.4278473,16.1113205 C25.0048126,16.9664065 19.3343207,19.3397066 19.0140997,22.9015264 C18.9167495,23.9835966 19.2777305,25.5446896 21.5503148,26.8362933 C22.7013155,27.4904466 24.267893,28.0246884 26.2212535,28.4334096 L25.3368752,31.1190778 L33.0461116,29.5121143 L27.7999219,23.6391939 L27.0448036,25.9324699 Z" id="Fill-1" fill="#F0EFF3" mask="url(#mask-2)"></path>
                    </g>
                </g>
            </g>
        </g>
    </g>
</svg>