<?xml version="1.0" encoding="UTF-8"?>
<svg width="99px" height="99px" viewBox="0 0 99 99" version="1.1" xmlns="http://www.w3.org/2000/svg" xmlns:xlink="http://www.w3.org/1999/xlink">
    <!-- Generator: Sketch 51.2 (57519) - http://www.bohemiancoding.com/sketch -->
    <title>step 6</title>
    <desc>Created with Sketch.</desc>
    <defs>
        <rect id="path-1" x="0" y="0" width="99" height="99"></rect>
    </defs>
    <g id="Culligan-Home-Softener-Page" stroke="none" stroke-width="1" fill="none" fill-rule="evenodd">
        <g id="Culligan_HOME_Waterkit" transform="translate(-726.000000, -3791.000000)">
            <g id="Group" transform="translate(135.000000, 3441.000000)">
                <g id="3-copy" transform="translate(591.000000, 0.000000)">
                    <g id="step-6" transform="translate(0.000000, 350.000000)">
                        <mask id="mask-2" fill="white">
                            <use xlink:href="#path-1"></use>
                        </mask>
                        <use id="Mask" fill="#545454" xlink:href="#path-1"></use>
                        <path d="M69.7078604,56.5012078 L61.5192345,59.4866571 C60.8991407,59.7128579 60.5813611,60.3938298 60.8098458,61.0079075 C60.9880675,61.4869209 61.4457733,61.7836614 61.9329373,61.7836614 C62.0702858,61.7836614 62.2100279,61.7601482 62.3464559,61.7103876 L70.5348977,58.724756 C71.1551756,58.4985553 71.4727711,57.8175834 71.2444706,57.2036879 C71.0159859,56.589428 70.327586,56.2748248 69.7078604,56.5012078 Z M61.2121334,53.5737213 C61.3496661,53.5737213 61.4892241,53.5502081 61.6256521,53.5004476 L70.5348977,50.2521606 C71.1551756,50.0261421 71.4727711,49.344988 71.2444706,48.7310925 C71.0159859,48.1168326 70.327586,47.8020471 69.7078604,48.0286124 L60.7986148,51.2767171 C60.1783369,51.5029179 59.8607414,52.1838898 60.0890419,52.7979675 C60.2672637,53.2769809 60.7249695,53.5737213 61.2121334,53.5737213 Z M72.8873141,43.8397968 L73.3879183,60.8537046 L59.6094266,66.1421731 L59.2667917,48.8056422 L72.8873141,43.8397968 Z M57.7798921,68.8430943 C57.9798393,68.9759713 58.2121903,69.0439591 58.4463825,69.0439591 C58.5923844,69.0439591 58.7391228,69.0175295 58.8790489,68.9639413 L75.0412563,62.7606446 C75.5138753,62.579283 75.8196876,62.1228714 75.8049586,61.6214384 L75.2312613,42.1242434 C75.2200304,41.7431106 75.0241338,41.3905947 74.7052494,41.177153 C74.3863651,40.9637113 73.9827886,40.9152267 73.6213741,41.0468278 L57.639966,46.8735485 C57.1612713,47.048166 56.8469897,47.5036662 56.857116,48.0085624 L57.2498298,67.8823334 C57.2575625,68.2691166 57.4553003,68.6278299 57.7798921,68.8430943 Z M61.8572667,57.7284519 L68.4113341,55.3390353 C69.0316121,55.1128345 69.3492076,54.4316803 69.120907,53.8177849 C68.8924224,53.2035249 68.2042066,52.8889217 67.5842969,53.1153048 L61.0302294,55.5049037 C60.4099515,55.7309222 60.0921719,56.4120763 60.3206565,57.0259718 C60.4988783,57.5049852 60.9565841,57.8017256 61.4437481,57.8017256 C61.5810966,57.8017256 61.7208387,57.7782124 61.8572667,57.7284519 Z M79.8569254,69.9383727 L51.5714055,81.1200916 L51.5714055,42.4946222 L79.8569254,31.288661 L79.8569254,69.9383727 Z M49.9999979,39.7477682 L38.9263156,35.3723051 L65.419492,24.3365869 L77.1806536,29.0036868 L49.9999979,39.7477682 Z M48.4285904,81.1200916 L20.1428863,69.9383727 L20.1428863,31.288661 L31.1429232,35.6398818 L31.1429232,47.6722687 L37.4285534,50.0059098 L37.4285534,38.1435836 L48.4285904,42.4946222 L48.4285904,81.1200916 Z M49.9999979,18.2351808 L58.4463825,21.5897329 L32.7879761,32.9415125 L22.8193422,29.0036868 L49.9999979,18.2351808 Z M82.0176799,27.5451383 L50.5891607,15.0995385 C50.4335849,15.0530589 50.2500239,15.0120475 50.0491562,15.0022048 C49.8481044,14.992362 49.6293777,15.0138702 49.410651,15.0993563 L17.982316,27.5451383 C17.4010701,27.7779009 16.9938113,28.3830472 17.0000712,29.0036868 L17.0000712,71.0079506 C17.0033852,71.6205701 17.4086187,72.2124105 17.982316,72.4420745 L49.410651,84.8880388 C49.7840329,85.0373204 50.2159629,85.0373204 50.5891607,84.8880388 L82.0176799,72.4420745 C82.591193,72.2124105 82.9966106,71.6205701 82.9999246,71.0079506 L82.9999246,29.0036868 C83.0063686,28.3830472 82.5989257,27.7779009 82.0176799,27.5451383 Z" id="Fill-1" fill="#F0EFF3" mask="url(#mask-2)"></path>
                    </g>
                </g>
            </g>
        </g>
    </g>
</svg>