<?xml version="1.0" encoding="UTF-8"?>
<svg width="99px" height="99px" viewBox="0 0 99 99" version="1.1" xmlns="http://www.w3.org/2000/svg" xmlns:xlink="http://www.w3.org/1999/xlink">
    <!-- Generator: Sketch 51.2 (57519) - http://www.bohemiancoding.com/sketch -->
    <title>step 5</title>
    <desc>Created with Sketch.</desc>
    <defs>
        <rect id="path-1" x="0" y="0" width="99" height="99"></rect>
    </defs>
    <g id="Culligan-Home-Softener-Page" stroke="none" stroke-width="1" fill="none" fill-rule="evenodd">
        <g id="Culligan_HOME_Waterkit" transform="translate(-726.000000, -3673.000000)">
            <g id="Group" transform="translate(135.000000, 3441.000000)">
                <g id="2-copy" transform="translate(591.000000, 226.000000)">
                    <g id="step-5" transform="translate(0.000000, 6.000000)">
                        <mask id="mask-2" fill="white">
                            <use xlink:href="#path-1"></use>
                        </mask>
                        <use id="Mask" fill="#545454" xlink:href="#path-1"></use>
                        <path d="M57.917626,67 L50,59.0650532 L73.1590636,46 L81,53.8580893 L57.917626,67 Z M72,69.8643956 L49,83 L49,61.1014071 L56.6384545,68.8452954 C56.8519696,69.0618632 57.1577143,69.1588568 57.3658636,69.1588568 C57.5370604,69.1588568 57.6606744,69.1588568 57.8708486,69.0523178 C57.8744932,69.0504703 57.8781379,69.0485201 57.8816813,69.0464674 L72,61 L72,69.8643956 Z M48.5,57 L25,44.1363716 L43.4355081,34 L43.4355081,39.1865423 L40.4904921,39.1865423 C40.1982363,39.1865423 39.795867,39.2922538 39.5381768,39.7961287 C39.3573797,40.1495795 39.3924628,40.5558356 39.6344225,40.9107027 C39.639597,40.9181885 39.645082,40.9253708 39.650981,40.9323508 L47.6604888,50.3273253 C47.6654563,50.3331926 47.6707343,50.3387564 47.6763228,50.344219 C47.7954398,50.4606534 48.1140857,50.731457 48.5,50.731457 C48.8646989,50.731457 49.1574722,50.5884177 49.3476869,50.3177152 L57.349019,40.9323508 C57.354918,40.9253708 57.360403,40.9181885 57.3655775,40.9107027 C57.6075372,40.5558356 57.6426203,40.1495795 57.4617197,39.7960275 C57.204133,39.2922538 56.8016602,39.1865423 56.5095079,39.1865423 L53.5643884,39.1865423 L53.5643884,34 L72,44.1363716 L48.5,57 Z M47,83 L24,69.9116578 L24,61 L38.0896286,69.0011529 C38.290692,69.1937262 38.4372882,69.2086576 38.6342008,69.2086576 C38.9235459,69.2086576 39.1478946,69.1123198 39.3616132,68.8962244 L47,61.1801988 L47,83 Z M15,53.8862818 L22.840257,46 L46,59.1136166 L38.159743,67 L15,53.8862818 Z M15,35.0648642 L38.3274134,22 L43,26.6489462 L43,31.7256144 L22.9754868,43 L15,35.0648642 Z M53,26.6489462 L57.6726714,22 L81,35.0648642 L73.0245422,43 L53,31.7256144 L53,26.6489462 Z M83.6857464,53.2532282 L74.8932133,44.5226338 L83.6865674,35.7132817 C83.8857726,35.5138169 84,35.2154423 84,34.894962 C84,34.5450761 83.7762662,34.223362 83.4527759,34.1030662 L58.0544738,19.7906451 C58.0508818,19.7884859 58.0471871,19.7865324 58.0434924,19.7846817 C57.9693934,19.7476676 57.8959102,19.7194958 57.8247875,19.6921465 C57.5714962,19.5951901 57.3714699,19.5184887 57.2187562,19.0636268 C57.1905329,18.9797282 57.1212576,18.9162901 57.0353561,18.8956239 C56.9496599,18.8748549 56.8590374,18.9000451 56.7958172,18.9620437 L53.0223107,22.6711634 L53.0223107,14.0528451 C53.0223107,13.5116169 52.5116229,13 51.9714802,13 L44.0285198,13 C43.4882745,13 42.9775867,13.5116169 42.9775867,14.0528451 L42.9775867,23.691107 L39.2058248,19.9124831 C38.8794608,19.5853197 38.3656942,19.5001873 37.9565076,19.7051014 C37.9528129,19.7070549 37.9491182,19.7090085 37.9454235,19.7110648 L12.5279297,34.0343845 C12.522285,34.0375718 12.516743,34.0409648 12.5114062,34.0445634 C12.2457993,34.2219225 12,34.4477085 12,34.894962 C12,35.2154423 12.1142274,35.5138169 12.3134326,35.7132817 L21.1075051,44.5234563 L12.3134326,53.333631 C12.1142274,53.5331986 12,53.8314704 12,54.1519507 C12,54.5018366 12.2236312,54.8234479 12.5469162,54.9437437 L21.531573,60.0313296 L21.531573,71.0217366 C21.531573,71.1909732 21.5763198,71.2526634 21.6861341,71.3625746 L21.7139469,71.390438 C21.7435044,71.4664197 21.8084693,71.5456915 21.9473279,71.5797239 C21.9873537,71.6204394 22.038874,71.651593 22.1003495,71.6666042 L47.4769966,85.9669958 C47.5154829,85.9885873 47.5587928,86 47.6028212,86 L48.3970762,86 C48.4412072,86 48.4845171,85.9885873 48.5229008,85.9669958 L73.9030373,71.6647535 C73.9755968,71.6450127 74.0430249,71.6014183 74.0891058,71.5374662 C74.1048082,71.5267732 74.1183554,71.5158746 74.1299526,71.505593 C74.1689521,71.4933577 74.2048727,71.4717662 74.2343275,71.4421549 L74.3137633,71.3625746 C74.3432181,71.333169 74.3646678,71.2973887 74.3769835,71.2584211 C74.4144435,71.216369 74.468427,71.1392563 74.468427,71.0217366 L74.468427,60.0313296 L83.4724809,54.9327423 C83.4780229,54.9296577 83.4833597,54.9263676 83.4885938,54.9228718 C83.7414746,54.7539437 84,54.5303169 84,54.1519507 C84,53.8627268 83.9052723,53.5738113 83.718588,53.2932239 C83.7090434,53.2788296 83.6979594,53.2654634 83.6857464,53.2532282 Z" id="Fill-1" fill="#F0EFF3" mask="url(#mask-2)"></path>
                    </g>
                </g>
            </g>
        </g>
    </g>
</svg>